<svg height='100px' width='100px' xmlns="http://www.w3.org/2000/svg" xmlns:xlink="http://www.w3.org/1999/xlink"
  version="1.1" x="0px" y="0px" viewBox="0 0 100 100" style="enable-background:new 0 0 100 100;" xml:space="preserve">
  <path
    d="M43.8,31.1c0,0,0,2.5,6.2,2.5s6.2-2.5,6.2-2.5v60.7c0,0,0,2.5-6.2,2.5s-6.2-2.5-6.2-2.5V31.1z M92.4,45.7  c0,0,0.1-0.1,0.1-0.1c0-0.1,0.1-0.2,0-0.4L92.1,44L92.4,45.7z M41.3,91l0-59.6c0-0.3-0.2-0.6-0.5-0.7c-17.7-8.8-30.5-7.3-34.5-6.5  C5.6,24.2,5,24.9,5,25.7v57.5c0,0.9,0.7,1.6,1.6,1.7c5.4,0.3,23.3,1.6,33.6,6.9C40.7,92,41.3,91.6,41.3,91z M23.2,6l-1.6,2.1  c-0.3,0.4-0.2,1,0.3,1.3c4.3,2,12.2,6.4,18.5,13.8l2.2,2.6l-1.5-3.1C36.9,14.1,29,8.3,24.2,5.8C23.9,5.6,23.4,5.7,23.2,6z   M39.4,26.2C32.2,19.3,22.9,15.6,16,13.9c-0.3-0.1-0.6,0-0.8,0.3l-2.3,3c-0.4,0.5-0.1,1.2,0.5,1.3c6.5,0.8,16.2,2.9,25.5,8.3  l2.9,1.7L39.4,26.2z M76.2,5.8c-4.8,2.5-12.6,8.3-16.9,16.9l-1.5,3.1l2.2-2.6c6.3-7.5,14.2-11.8,18.5-13.8c0.5-0.2,0.6-0.8,0.3-1.3  L77.2,6C77,5.7,76.5,5.6,76.2,5.8z M58.6,28.5l2.9-1.7c9.3-5.3,19-7.5,25.5-8.3c0.6-0.1,0.9-0.8,0.5-1.3l-2.3-3  c-0.2-0.3-0.5-0.4-0.8-0.3c-6.9,1.6-16.2,5.3-23.3,12.2L58.6,28.5z M59.9,91.7c10.3-5.2,28.2-6.6,33.6-6.9c0.9,0,1.6-0.8,1.6-1.7  V25.7c0-0.8-0.6-1.5-1.3-1.6c-4-0.8-16.8-2.3-34.5,6.5c-0.3,0.1-0.5,0.4-0.5,0.7l0,59.6C58.7,91.6,59.3,92,59.9,91.7z">
  </path>
</svg>