<?xml version="1.0" standalone="no"?>
<!DOCTYPE svg PUBLIC "-//W3C//DTD SVG 20010904//EN"
 "http://www.w3.org/TR/2001/REC-SVG-20010904/DTD/svg10.dtd">
<svg version="1.0" xmlns="http://www.w3.org/2000/svg"
 width="597.000000pt" height="200.000000pt" viewBox="0 0 597.000000 200.000000"
 preserveAspectRatio="xMidYMid meet">
<g transform="translate(0.000000,200.000000) scale(0.100000,-0.100000)"
fill="#000" stroke="none">
<path d="M2395 1521 c-127 -33 -187 -118 -188 -266 -1 -152 61 -235 196 -258
102 -17 186 19 217 92 21 51 5 57 -23 9 -61 -105 -192 -105 -240 0 -19 40 -22
65 -22 172 0 107 3 131 21 165 55 108 196 95 225 -21 13 -49 23 -56 33 -21 14
52 7 96 -18 112 -28 19 -154 29 -201 16z"/>
<path d="M4615 1521 c-127 -33 -187 -118 -188 -266 -1 -152 61 -235 196 -258
102 -17 186 19 217 92 21 51 5 57 -23 9 -61 -105 -192 -105 -240 0 -19 40 -22
65 -22 172 0 107 3 131 21 165 55 108 196 95 225 -21 13 -49 23 -56 33 -21 14
52 7 96 -18 112 -28 19 -154 29 -201 16z"/>
<path d="M447 1513 c-11 -10 -8 -133 3 -133 5 0 14 18 20 40 13 49 42 70 97
70 l43 0 0 -223 c0 -236 -2 -247 -47 -247 -13 0 -23 -4 -23 -10 0 -6 48 -10
125 -10 77 0 125 4 125 10 0 6 -11 10 -25 10 -14 0 -29 8 -35 19 -6 12 -10
106 -10 235 l0 216 44 0 c24 0 52 -3 61 -6 19 -8 45 -55 45 -84 0 -43 19 -17
25 35 12 90 25 85 -223 85 -120 0 -222 -3 -225 -7z"/>
<path d="M940 1510 c0 -5 10 -10 23 -10 45 0 47 -11 47 -240 0 -229 -2 -240
-47 -240 -13 0 -23 -4 -23 -10 0 -6 48 -10 125 -10 77 0 125 4 125 10 0 6 -11
10 -25 10 -36 0 -45 27 -45 139 l0 101 100 0 100 0 0 -108 c0 -115 -6 -132
-47 -132 -13 0 -23 -4 -23 -10 0 -6 48 -10 125 -10 77 0 125 4 125 10 0 6 -11
10 -25 10 -14 0 -29 8 -35 19 -6 12 -10 101 -10 221 0 120 4 209 10 221 6 11
21 19 35 19 14 0 25 5 25 10 0 6 -48 10 -125 10 -77 0 -125 -4 -125 -10 0 -5
10 -10 23 -10 40 0 47 -18 47 -117 l0 -93 -100 0 -100 0 0 86 c0 97 10 124 45
124 14 0 25 5 25 10 0 6 -48 10 -125 10 -77 0 -125 -4 -125 -10z"/>
<path d="M1550 1510 c0 -5 10 -10 23 -10 45 0 47 -11 47 -240 0 -229 -2 -240
-47 -240 -13 0 -23 -4 -23 -10 0 -6 73 -10 199 -10 155 0 201 3 210 14 14 17
27 136 15 136 -5 0 -18 -19 -29 -42 -25 -53 -70 -78 -143 -78 -47 0 -53 3 -62
26 -6 14 -10 66 -10 115 l0 89 43 0 c46 0 77 -21 77 -53 0 -9 5 -17 10 -17 6
0 10 35 10 86 0 54 -4 83 -10 79 -5 -3 -10 -14 -10 -24 0 -28 -23 -42 -72 -44
l-43 -2 -3 80 c-5 124 -4 125 73 125 75 0 100 -16 111 -74 3 -20 10 -36 14
-36 10 0 24 116 15 129 -8 15 -395 15 -395 1z"/>
<path d="M2680 1510 c0 -5 10 -10 23 -10 45 0 47 -11 47 -240 0 -229 -2 -240
-47 -240 -13 0 -23 -4 -23 -10 0 -6 48 -10 125 -10 77 0 125 4 125 10 0 6 -11
10 -25 10 -36 0 -45 27 -45 139 l0 101 100 0 100 0 0 -108 c0 -115 -6 -132
-47 -132 -13 0 -23 -4 -23 -10 0 -6 48 -10 125 -10 77 0 125 4 125 10 0 6 -11
10 -25 10 -14 0 -29 8 -35 19 -6 12 -10 101 -10 221 0 120 4 209 10 221 6 11
21 19 35 19 14 0 25 5 25 10 0 6 -48 10 -125 10 -77 0 -125 -4 -125 -10 0 -5
10 -10 23 -10 40 0 47 -18 47 -117 l0 -93 -100 0 -100 0 0 86 c0 97 10 124 45
124 14 0 25 5 25 10 0 6 -48 10 -125 10 -77 0 -125 -4 -125 -10z"/>
<path d="M3290 1511 c0 -5 13 -11 29 -14 38 -8 41 -22 41 -214 0 -196 10 -232
74 -265 57 -30 184 -32 241 -3 71 36 80 63 83 275 2 107 8 190 14 198 6 6 21
12 34 12 13 0 24 5 24 10 0 6 -38 10 -95 10 -57 0 -95 -4 -95 -10 0 -5 10 -10
23 -10 50 0 52 -7 55 -197 3 -196 -6 -234 -58 -260 -34 -17 -105 -16 -139 2
-44 22 -51 59 -51 254 0 187 3 201 47 201 13 0 23 5 23 10 0 6 -48 10 -125 10
-69 0 -125 -4 -125 -9z"/>
<path d="M3870 1510 c0 -5 10 -10 23 -10 45 0 47 -11 47 -240 0 -223 -3 -240
-41 -240 -10 0 -21 -4 -24 -10 -4 -6 40 -10 124 -10 81 0 131 4 131 10 0 6
-14 10 -30 10 -40 0 -50 27 -50 136 0 76 2 84 19 84 14 0 33 -25 69 -92 77
-143 124 -174 220 -149 45 13 57 31 19 31 -30 0 -53 25 -122 135 l-56 90 29
12 c16 7 42 27 57 45 24 28 27 38 23 87 -6 67 -33 94 -108 110 -65 14 -330 15
-330 1z m261 -20 c44 -12 59 -42 59 -116 0 -73 -28 -104 -95 -104 l-45 0 0 99
c0 77 4 103 16 115 18 19 19 19 65 6z"/>
<path d="M4900 1510 c0 -5 10 -10 23 -10 45 0 47 -11 47 -240 0 -229 -2 -240
-47 -240 -13 0 -23 -4 -23 -10 0 -6 48 -10 125 -10 77 0 125 4 125 10 0 6 -11
10 -25 10 -36 0 -45 27 -45 139 l0 101 100 0 100 0 0 -108 c0 -115 -6 -132
-47 -132 -13 0 -23 -4 -23 -10 0 -6 48 -10 125 -10 77 0 125 4 125 10 0 6 -11
10 -25 10 -14 0 -29 8 -35 19 -6 12 -10 101 -10 221 0 120 4 209 10 221 6 11
21 19 35 19 14 0 25 5 25 10 0 6 -48 10 -125 10 -77 0 -125 -4 -125 -10 0 -5
10 -10 23 -10 40 0 47 -18 47 -117 l0 -93 -100 0 -100 0 0 86 c0 97 10 124 45
124 14 0 25 5 25 10 0 6 -48 10 -125 10 -77 0 -125 -4 -125 -10z"/>
<path d="M1400 615 c0 -149 2 -175 15 -175 13 0 15 26 15 175 0 149 -2 175
-15 175 -13 0 -15 -26 -15 -175z"/>
<path d="M1630 615 c0 -220 18 -239 22 -23 l3 151 100 -151 c55 -83 106 -152
113 -152 9 0 12 42 12 175 0 221 -18 239 -22 23 l-3 -153 -100 152 c-55 84
-106 153 -112 153 -10 0 -13 -42 -13 -175z"/>
<path d="M2340 779 c-43 -17 -60 -40 -60 -79 0 -48 26 -71 113 -100 95 -31
119 -69 72 -115 -42 -43 -147 -29 -170 23 -12 28 -25 29 -25 2 0 -54 101 -94
174 -70 44 14 66 44 66 88 0 46 -36 78 -109 98 -66 19 -101 44 -101 74 0 28
47 60 90 60 40 0 90 -31 90 -56 0 -8 7 -14 15 -14 38 0 -1 65 -51 86 -38 16
-69 17 -104 3z"/>
<path d="M2657 759 c101 -168 113 -195 113 -257 0 -35 4 -62 10 -62 6 0 10 28
10 64 0 62 3 71 65 176 46 80 59 110 47 108 -10 -2 -39 -43 -67 -95 -27 -51
-53 -93 -56 -93 -3 0 -28 42 -56 93 -29 53 -58 93 -68 96 -16 3 -16 0 2 -30z"/>
<path d="M3070 615 l0 -175 63 0 c75 0 122 21 154 69 19 27 23 48 23 106 0 58
-4 79 -23 106 -32 48 -79 69 -154 69 l-63 0 0 -175z m165 123 c51 -40 69 -124
41 -192 -22 -54 -60 -76 -127 -76 l-59 0 0 145 0 145 59 0 c45 0 65 -5 86 -22z"/>
<path d="M3490 615 c0 -220 18 -239 22 -23 l3 151 100 -151 c55 -83 106 -152
113 -152 9 0 12 42 12 175 0 221 -18 239 -22 23 l-3 -153 -100 152 c-55 84
-106 153 -112 153 -10 0 -13 -42 -13 -175z"/>
<path d="M3930 615 l0 -175 105 0 c87 0 105 3 105 15 0 12 -17 15 -95 15 l-95
0 0 65 0 65 85 0 c69 0 85 3 85 15 0 12 -16 15 -85 15 l-85 0 0 65 0 65 95 0
c78 0 95 3 95 15 0 12 -18 15 -105 15 l-105 0 0 -175z"/>
<path d="M4287 759 c101 -168 113 -195 113 -257 0 -35 4 -62 10 -62 6 0 10 28
10 64 0 62 3 71 65 176 46 80 59 110 47 108 -10 -2 -39 -43 -67 -95 -27 -51
-53 -93 -56 -93 -3 0 -28 42 -56 93 -29 53 -58 93 -68 96 -16 3 -16 0 2 -30z"/>
</g>
</svg>
